<svg xmlns="http://www.w3.org/2000/svg" id="Layer_1" data-name="Layer 1" viewBox="0 0 200 46"><defs><style>.cls-1{fill:#252525}</style></defs><path d="M45.63 36.07v-.41h4.68v.41c-1.37 0-1.61.33-1.61 2.36v3c0 2.06.24 2.38 1.61 2.38H51c1.88 0 2.13-.35 2.38-1.31l.12-.5h.42l-.13 2.48h-8.16v-.38c1.36 0 1.61-.34 1.61-2.39v-3.28c0-2-.25-2.36-1.61-2.36M60.42 44.86a4.78 4.78 0 1 1 5-4.78 4.9 4.9 0 0 1-5 4.78m0-8.78c-2.41 0-3.33 2.24-3.33 4s.92 4 3.33 4 3.3-2.2 3.3-4-.9-4-3.3-4M71.39 44.86a4.3 4.3 0 0 1-2.28-.76 1.59 1.59 0 0 0-.39.76h-.37v-3.52h.4a2.72 2.72 0 0 0 2.81 2.72 1.4 1.4 0 0 0 1.57-1.37c0-.7-.58-1.28-1.68-1.8l-1.38-.73a2.81 2.81 0 0 1-1.7-2.49 2.41 2.41 0 0 1 2.55-2.34 3.22 3.22 0 0 1 1.94.62 1.12 1.12 0 0 0 .31-.64h.41v3.44h-.41c-.11-1.21-.67-2.67-2.14-2.67a1.31 1.31 0 0 0-1.47 1.19c0 .71.52 1.11 1.78 1.76l1.37.72a2.62 2.62 0 0 1 1.58 2.31 2.78 2.78 0 0 1-2.9 2.8M83.83 42.54c-.5 1.2-.5 1.54 1.11 1.54v.44h-3.88v-.44c1.25 0 1.44-.25 2.12-1.77l3-7h.3l3 7c.68 1.52.91 1.77 2 1.77v.44h-4.57v-.44c1.46 0 1.6-.34 1.09-1.54l-.41-.95h-3.34Zm2.09-4.84-1.35 3.13h2.7ZM93 36.07v-.41h2.51l5.42 6.46v-3.69c0-2-.24-2.36-1.6-2.36v-.41h4v.41c-1.38 0-1.61.33-1.61 2.36v6.41h-.4l-6-7.14v4c0 2 .25 2.39 1.62 2.39v.42H93v-.41c1.36 0 1.61-.34 1.61-2.39v-3.28c0-2-.25-2.36-1.61-2.36M110.55 44.86a4.78 4.78 0 0 1 0-9.55 3.75 3.75 0 0 1 2.7 1.35 3.19 3.19 0 0 0 .36-1h.39v3.55h-.39c-.39-1.91-1.48-3.13-3-3.13-2.3 0-3 2.29-3 4s.72 4 3 4c1 0 2.59-.62 2.59-1.74 0-.8-.75-1.24-1.76-1.24v-.42h4.52v.42c-1.37 0-1.62.33-1.62 2.39v.61c-1.29 0-2.54.78-3.73.78M124.92 42.45 125 42h.39l-.15 2.48h-7.65v-.38c1.37 0 1.62-.34 1.62-2.39v-3.28c0-2-.25-2.36-1.62-2.36v-.41h7.15l.17 2.44h-.42l-.1-.4c-.25-.94-.5-1.3-2.36-1.3h-1.33v3h.1c2 0 2.22-.23 2.22-1.61h.41v4H123c0-1.37-.17-1.63-2.22-1.63h-.1v1.19c0 2.06.23 2.38 1.6 2.38h.25c1.87 0 2.12-.35 2.37-1.31M127.84 36.07v-.41h4.69v.41c-1.37 0-1.62.33-1.62 2.36v3c0 2.06.25 2.38 1.62 2.38h.71c1.89 0 2.12-.35 2.37-1.31l.1-.41h.45l-.16 2.43h-8.16v-.42c1.37 0 1.61-.34 1.61-2.39v-3.28c0-2-.24-2.36-1.61-2.36M144.72 42.45l.1-.41h.4l-.15 2.48h-7.65v-.42c1.37 0 1.61-.34 1.61-2.39v-3.28c0-2-.24-2.36-1.61-2.36v-.41h7.15l.16 2.44h-.42l-.11-.4c-.22-.94-.48-1.3-2.34-1.3h-1.38v3h.12c2.06 0 2.21-.23 2.21-1.61h.41v4h-.41c0-1.37-.15-1.63-2.21-1.63h-.12v1.19c0 2.06.24 2.38 1.62 2.38h.24c1.86 0 2.12-.35 2.38-1.31M151 44.86a4.27 4.27 0 0 1-2.29-.76 1.59 1.59 0 0 0-.38.76H148v-3.52h.39a2.73 2.73 0 0 0 2.82 2.72 1.4 1.4 0 0 0 1.57-1.37c0-.7-.56-1.28-1.68-1.8l-1.39-.73a2.81 2.81 0 0 1-1.71-2.49 2.4 2.4 0 0 1 2.54-2.34 3.25 3.25 0 0 1 2 .62 1.27 1.27 0 0 0 .3-.64h.41v3.44h-.41c-.13-1.21-.67-2.67-2.14-2.67-.8 0-1.46.45-1.46 1.19s.46 1.11 1.76 1.73l1.37.72a2.62 2.62 0 0 1 1.58 2.31 2.79 2.79 0 0 1-2.9 2.8M13.29 12.36c-.72 1.26-1.6 3-3.12 2.8-.46.28-1.06.09-1.53.17-.11 0-.15-.21-.29-.21a5.94 5.94 0 0 1-2.16-.25c-.13-.47-.61-.39-.92-.42 0-.17-.18-.23-.26-.37s-.26.3-.35.07c-.29.3-.26.9-.75.9-.29.07-.47-.12-.69-.26-.48-.48 0-1.21-.08-1.79.37-.89 0-1.7.14-2.62.29-.22.36-.69.82-.39.18.24.37.58.69.7.06.23.36.13.34.41a.42.42 0 0 0-.12.5c.21.41.8.34.61 1a.37.37 0 0 0 .37.18.22.22 0 0 0 .07-.16c.18.16.47.16.58.44.46 0 .83.31 1.23.34.14.41.64.12.73.56.23 0 .38-.36.54-.5.42.06.93.14 1.25-.25.21-.1.29-.26.51-.4-.09.17.2.25.3.14s.3-.17.36-.35c-.15-.32.42-.47.13-.77a3.19 3.19 0 0 0 .14-1.56c-.64-.39-1-1.67-1.85-1.1-.91 0-1.61-.66-2.46-.24-.24.08-.6.3-.8 0A14.72 14.72 0 0 1 5 8.49c-.26-.19-.18-.6-.51-.74a2.42 2.42 0 0 1-.89-1.6c.36-.91-.34-2.06.44-2.73 0-.54.42-.73.77-1 .77.34 1.14-.95 2-.58.46-.42 1.07 0 1.53-.38.55.67 1.67 0 2.08.92.27 0 .45.31.78.26.22-.31.24-.75.55-1 .24 0 .65 0 .89.09A2.06 2.06 0 0 1 12.72 3c0 .19-.17.43 0 .5a1.31 1.31 0 0 0-.12 1.08c-.06.76.29 1.46-.13 2.12-.41-.08-.79-.15-.94-.62-.06-.12-.09-.31-.24-.34-.25-.44.29-1.27-.42-1.19-.41-.44-.7-1.14-1.38-.81-.23.05-.41-.43-.66-.59-.53.13-1-.1-1.48.23-.15-.25-.5-.17-.77-.13-.35.68-1.12.34-1.45 1-.3.34-.15.9-.41 1.24 0 .6.52.76.67 1.29.22-.12.37.28.57.37a8.21 8.21 0 0 0 2.36.18c.16-.4.35.07.53.07a2.82 2.82 0 0 1 2.55.43c.47-.09.66.31.94.69 1 .81 1.1 2.49.89 3.74.06 0 .21.13 0 0ZM32.89 15.16c-.09 0-.16.09-.27.15-.82-.06-2.17.39-2.9-.35-.09-.39-.37-.74-.34-1.17-.05-.17-.21-.2-.37-.2-1 1-2.16 2.22-3.75 1.9a2.11 2.11 0 0 1-1.71-.78 1.07 1.07 0 0 1-.85-.81 3.06 3.06 0 0 0-.32-.77c0-.37-.24-.59-.4-.9-.32-2.43.08-5.49 0-7.81a.93.93 0 0 0-.39-.59c-.54-.38-1.5.17-1.77-.64a2 2 0 0 1-.06-.86.74.74 0 0 1 .43-.39c.61.39 1.42-.18 2 .3a1.36 1.36 0 0 1 1.26.64 1.45 1.45 0 0 0-.06.84c.18.28-.14.79.16 1.06-.24.56.24 1.12.07 1.68-.05.93-.6 1.89-.15 2.87 0 1.21-.25 2.48.41 3.51.18-.05.26.12.4.12.14.54.84.39 1.23.57.83-.34 2.17-.24 2.58-1.46.95-.32.81-1.53 1.24-2.31s-.43-1.89.14-2.79c.13-.47-.54-1 .07-1.26A3.05 3.05 0 0 0 29.35 4c-.85-.31-1.78.45-2.46-.43 0-.42-.14-1 .23-1.3a3.79 3.79 0 0 1 1.25 0c.16-.31.45.08.69.08a1.73 1.73 0 0 1 1.39.14c.33.15.35.7.64.77-.11.35.06.85-.21 1.1 0 .72-.41 1.52 0 2.17.13.56-.43.87-.16 1.43.14 1.41-.1 2.68.06 4 .2.48.15 1.25.64 1.53s1.33 0 1.54.74c-.05.42.11.72-.07 1M51.08 4.73a1.42 1.42 0 0 1-1.65.71c-.28 0-.46-.35-.59-.56-.29-.46 0-1.29-.49-1.64a1.21 1.21 0 0 0-1.41.54c-.17.81.86 1.39.38 2.25.16.81-.27 1.49-.33 2.27-.34.15-.32.75-.74.72-.27.17-.17.46-.25.71-.71-.31-.76.91-1.47.6-.53-.1-1 .34-1.6.21a5.62 5.62 0 0 1-2.3-1c-.34-.09-.42.38-.64.58a2.24 2.24 0 0 0 .74 1.92A1.45 1.45 0 0 0 42 12a1.29 1.29 0 0 0 1.19-.17 4.77 4.77 0 0 0 1.72-.15c.17 0 .42.13.56.06.57-.09 1 .48 1.53.13a6.92 6.92 0 0 0 1.06.35c.65.43 1.28.64 1.69 1.5.81.34.56 1.3.77 2 0 .79.14 1.91-.51 2.55-.36.72-.77 1.69-1.54 1.85a13.45 13.45 0 0 1-3 .49 16.89 16.89 0 0 1-2.65-.05c-.54-.57-1.31.05-1.81-.57a4.07 4.07 0 0 1-2.32-2.8 6.53 6.53 0 0 1 .15-2.9c.16-.46.93-.9.61-1.46a3.56 3.56 0 0 1-.61-3.31c.25-.52 1-.75.75-1.46a13.89 13.89 0 0 1-.54-2.73c-.07 0 .17-.18.13-.24.17-.51.25-1 .44-1.55.12-.15.5 0 .58-.38s.53-.48.72-1 .7 0 .93-.41c.39-.12.79.28 1.09-.12.55 0 1.29-.17 1.75.3.54.17 1 .72 1.56.57a2.55 2.55 0 0 1 1.14-.77 5.66 5.66 0 0 1 2.22.27c.63.51 1.44 1 1.47 1.94v.82ZM49 15c-.4-.16-.54-.67-.84-1a8.18 8.18 0 0 0-2.53-.49c-.37-.52-1 0-1.53-.19-.26-.1-.49.19-.66-.07-.46.07-.92-.13-1.28.31-.5-.15-.82.26-1.18.62-.15.14-.43-.06-.54.14-.29 1.07-.45 2.65.44 3.55.56.56 1.35.34 1.83.92 1.05-.09 2 .29 2.92-.05 1.13 0 2.6.05 3.26-1.27.13-.78.59-1.74.11-2.51Zm-3.16-8.23c.7-.69-.23-1.39-.13-2.21-.45-.17-.52-1.24-1.18-.9A3.39 3.39 0 0 0 42.72 3c-.57.5-1.37.55-1.76 1.31a4.21 4.21 0 0 1-.43 1.18c0 .47-.14 1 .16 1.34a2.43 2.43 0 0 0 .93 1.77c.75.06 1.31.66 2.14.41.53.1.77-.79 1.45-.47.27-.36.23-.86.72-1a1.34 1.34 0 0 0-.09-.85M69 15.12a2 2 0 0 1-2.25-.12c-.24-.37-.64-.4-.89-.82-.3.07-.45-.39-.78-.19-.55.48-1.17.72-1.71 1.19-1.32.5-2.55.1-4 .13a3.4 3.4 0 0 1-2.47-2.9c0-.95-.55-2 .38-2.68 0-.83.89-1 1.36-1.38 1.65-.48 3.48-.46 5.19-.8.37-.46 1-.34 1.25-1-.15-.79 0-1.72-.74-2.15A9.62 9.62 0 0 0 61 3.5a1.2 1.2 0 0 0-1 .57c0 .77.39 1.61-.18 2.2a1.25 1.25 0 0 1-1.31.45c-.46-.41-1.08-.72-1-1.55a2.93 2.93 0 0 0 .14-1c.28-.41.43-.92.91-1.11 0-.29.23-.07.29-.22.76-.54 1.78-.16 2.44-.91.83-.4 1.62.2 2.5.16a4.94 4.94 0 0 1 1.18.57 2.75 2.75 0 0 1 1.7 2.27c.12.55-.17 1 0 1.48a29.41 29.41 0 0 0-.21 3c.26 1-.5 2 .26 2.9.42.47.81 1.26 1.48 1.26.4.07.94 0 1.1.64a1.1 1.1 0 0 1-.16.9M65 10.79c.23-.46-.29-.89 0-1.33A1.11 1.11 0 0 0 64 9c-1.64 1.08-4-.59-5.47 1.28a2.73 2.73 0 0 0-.25 1.8c.37 1.4 1.68 1.55 2.66 1.94s1.5-.6 2.2-1.08a4.06 4.06 0 0 0 .86-.33c.34-.65 1-1 1-1.84ZM86.63 3.17v.08a15 15 0 0 1 .73 1.34c.08.91.32 2.15-.43 2.77-.42.53-1 .13-1.5.23-.1-.57-.78-.6-.56-1.34-.19-.47.28-.66.34-1.14a1.4 1.4 0 0 1 .29-.23.17.17 0 0 1 .09-.1c.11-.16.13-.34-.08-.58a1.76 1.76 0 0 0-1.46-.54 1.85 1.85 0 0 0-1.43.23c-.33.55-1.2.11-1.28 1 0 .08 0 .08-.11 0A.14.14 0 0 0 81 5a1.42 1.42 0 0 1-.32.37 1.07 1.07 0 0 0-.33.88l-.15.17-.11.13a.65.65 0 0 0-.21.72c.21.48-.4.81-.15 1.38a33.91 33.91 0 0 0 .09 3.9c-.09.16-.08.35-.18.55a.53.53 0 0 0 0 .41 1.21 1.21 0 0 1 .14.39.23.23 0 0 0 .32 0l.08-.06c.14-.06.24-.08.34.06a14.52 14.52 0 0 0 1.69-.08 4 4 0 0 1 1.66.15c.29.05.39.28.51.63a.34.34 0 0 1-.09.48 3.08 3.08 0 0 0-.42.39 1.71 1.71 0 0 1-1.62-.08 12 12 0 0 1-1.37.08 5.92 5.92 0 0 1-1.34-.13 15.52 15.52 0 0 0-2.22.13 8 8 0 0 1-2.26-.11.82.82 0 0 1-.35-.4c0-.22-.06-.45-.06-.68s0-.35.24-.42a9.25 9.25 0 0 1 2.35 0c.29.25.67.11 1 0a2.51 2.51 0 0 0 .15-1.53 4 4 0 0 1 0-.58 5 5 0 0 1-.08-1.65 5.19 5.19 0 0 0-.08-1.6 2.25 2.25 0 0 0 0-.73.92.92 0 0 1 .3-.77 10.43 10.43 0 0 0-.19-1.65 1.32 1.32 0 0 0 .09-.9v-.36c-.44-.37-1.11-.26-1.58-.35a2.75 2.75 0 0 1-1.44.26 1 1 0 0 1-.68-.53c0-.34-.12-.85.19-1.06a12.16 12.16 0 0 1 4.17 0c.37.38.68.61.69 1.23.43 0 .7-.42 1-.71a1.28 1.28 0 0 0 .59-.38.89.89 0 0 1 .63-.29 1.62 1.62 0 0 0 1-.19 1.56 1.56 0 0 1 1-.18.32.32 0 0 1 .39-.07 3.24 3.24 0 0 0 1.1.42c.35.3.71.57 1.15 1l.06-.14ZM123.89 7.55c0 1.41.14 3-.65 4.08a6 6 0 0 1-2.46 3.37 3.74 3.74 0 0 1-2.64.44c-.45-.42-1.09-.26-1.53-.73-.56-.18-.21-.84-.74-1a.86.86 0 0 0-.41-.11c-.18.22-.07.56-.33.72a8 8 0 0 0 .15 1.44c.11.17.17.37.25.49 0 .58-.56 1.49.12 1.91.22.3.4.87.87.69.45-.44 1.09 0 1.6-.17.15.19.42.07.55.35-.15.34.57.9-.13 1-.06.68-.66.36-1 .59a20.4 20.4 0 0 0-3-.19 8 8 0 0 1-2.75 0 .87.87 0 0 1-.77-.67c-.06-.35.13-.54.18-.81.42 0 .8-.47 1.23-.38.29-.18.65.17.91-.12a.35.35 0 0 0 .34.09.49.49 0 0 0 .17-.25 8.44 8.44 0 0 1 .1-2.85 5.45 5.45 0 0 1 0-1.71c-.29-.94.25-2-.15-2.78 0-.93.5-1.85.07-2.74.15-.79-.35-1.31-.07-2a15.28 15.28 0 0 0 .17-2 .52.52 0 0 0 .14-.56c-.35-.59-.89.19-1.31-.17-.58.05-1.3.17-1.74-.3-.19-.2 0-.52 0-.76.46-.89 1.18 0 1.79-.42.6-.1 1.17.23 1.73.17.17.22.57.27.48.68a.32.32 0 0 0 .38.25c.29-.23.66-.28.91-.66.26-.21.64-.18.94-.47.5 0 .9-.57 1.43-.2.49-.13.81.18 1.24.3.56-.27.87.41 1.33.56.51.51.59 1.28 1.21 1.65.31.62 1 1.18.92 2 .24.4.28.94.52 1.37Zm-1.58.45c0-.15-.19-.13-.11-.34-.11-.35-.56-.56-.4-.88a6.91 6.91 0 0 0-1.2-2.18c-.46-.11-.32-.88-.86-.93-.48.26-.74-.27-1.18-.24s-1 0-1.35.38c-.3.59-.9.63-1.31.9 0 .32-.25.48-.3.77-.59.58-.1 1.69-.24 2.48-.26.12-.19.52-.3.79.51.42-.06 1.18.39 1.53-.56.72.62.87.5 1.55.39.22-.08.8.51.8-.12.16 0 .28.07.42.89.15 1.61 1 2.6.66.22-.11.08-.42.28-.44.54.8.6-.56 1.08-.61.06-.74 1-.83.88-1.61.4 0 .34-.38.55-.65-.09-.37.25-.58.13-.94.47-.49-.41-1.05.26-1.5ZM142 15.12a2 2 0 0 1-2.27-.12c-.26-.37-.65-.4-.89-.82-.3.07-.45-.39-.78-.19-.54.48-1.17.72-1.7 1.19-1.34.5-2.57.1-4 .13a3.35 3.35 0 0 1-2.46-2.9c-.06-.95-.57-2 .37-2.68 0-.83.88-1 1.36-1.38 1.66-.48 3.47-.46 5.18-.8.39-.46 1-.34 1.26-1-.16-.79 0-1.72-.76-2.15a9.35 9.35 0 0 0-3.31-.9 1.18 1.18 0 0 0-1 .57c0 .77.4 1.61-.18 2.2a1.26 1.26 0 0 1-1.32.45c-.47-.41-1.07-.72-1-1.55a2.94 2.94 0 0 0 .15-1c.28-.41.41-.92.89-1.11 0-.29.25-.07.29-.22.76-.54 1.8-.16 2.45-.91.82-.4 1.63.2 2.5.16a4.76 4.76 0 0 1 1.18.57 2.78 2.78 0 0 1 1.71 2.27c.11.55-.18 1-.06 1.48a29.37 29.37 0 0 0-.22 3c.28 1-.5 2 .28 2.9.39.47.8 1.26 1.47 1.26.4.07.94 0 1.09.64a1.06 1.06 0 0 1-.15.9M138 10.79c.24-.46-.3-.89 0-1.33a1.13 1.13 0 0 0-1-.46c-1.66 1.08-4-.59-5.44 1.28a2.62 2.62 0 0 0-.28 1.8c.37 1.4 1.69 1.55 2.68 1.94.84.3 1.49-.6 2.2-1.08a4.33 4.33 0 0 0 .84-.33c.35-.65 1-1 1-1.84ZM160.39 7.55c-.06 1.41.13 3-.64 4.08a6 6 0 0 1-2.46 3.37 3.77 3.77 0 0 1-2.65.44c-.45-.42-1.09-.26-1.51-.73-.57-.18-.23-.84-.76-1a.79.79 0 0 0-.4-.11c-.19.22-.06.56-.35.72a9.06 9.06 0 0 0 .16 1.44 4.3 4.3 0 0 1 .24.49c0 .58-.55 1.49.14 1.91.21.3.4.87.87.69.44-.44 1.08 0 1.59-.17.16.19.43.07.56.35-.16.34.57.9-.13 1-.06.68-.67.36-1 .59a20.49 20.49 0 0 0-3-.19 8 8 0 0 1-2.75 0 .88.88 0 0 1-.78-.67c0-.35.13-.54.19-.81.43 0 .8-.47 1.23-.38.29-.18.65.17.92-.12a.31.31 0 0 0 .33.09 1 1 0 0 0 .17-.25 8.19 8.19 0 0 1 .1-2.85 4.91 4.91 0 0 1 0-1.71c-.3-.94.23-2-.13-2.78-.05-.93.48-1.85 0-2.74.15-.79-.36-1.31-.1-2a12.55 12.55 0 0 0 .2-2 .52.52 0 0 0 .13-.56c-.35-.59-.89.19-1.3-.17-.59.05-1.31.17-1.73-.3-.22-.2 0-.52 0-.76.46-.89 1.18 0 1.8-.42.59-.1 1.16.23 1.73.17.16.22.58.27.48.68a.33.33 0 0 0 .39.25c.28-.23.65-.28.89-.66.27-.21.65-.18.94-.47.51 0 .9-.57 1.44-.2.47-.13.81.18 1.23.3.56-.27.88.41 1.34.56.51.51.58 1.28 1.19 1.65.32.62 1 1.18.94 2 .24.4.27.94.51 1.37Zm-1.58.45c0-.15-.18-.13-.1-.34-.11-.35-.56-.56-.4-.88-.4-.72-.56-1.63-1.21-2.18-.45-.11-.32-.88-.84-.93-.48.26-.76-.27-1.19-.24s-1 0-1.36.38c-.29.59-.87.63-1.29.9 0 .32-.26.48-.31.77-.59.58-.11 1.69-.24 2.48-.25.12-.19.52-.29.79.5.42-.09 1.18.36 1.53-.56.72.64.87.52 1.55.4.22-.09.8.49.8-.09.16 0 .28.1.42.87.15 1.59 1 2.58.66.21-.11.09-.42.3-.44.53.8.59-.56 1.08-.61 0-.74 1-.83.87-1.61.39 0 .34-.38.54-.65-.09-.37.27-.58.13-.94.48-.49-.4-1.05.26-1.5ZM175 8.5c-.4-.15-.75.08-1.14.14a18.35 18.35 0 0 1-2.57-.06 9.74 9.74 0 0 0-2.58.15c-.22.34-.07.69 0 1a2.67 2.67 0 0 1 0 .4.32.32 0 0 1 .16.38v.19c0 .21 0 .46.32.5a3.69 3.69 0 0 1 .56.78 2.22 2.22 0 0 0 .65.75 3.77 3.77 0 0 0 3.13.65 3.42 3.42 0 0 1 .78-.37 2.65 2.65 0 0 0 .55-.72 1.17 1.17 0 0 1 .52-.6 1.2 1.2 0 0 0 .4-.55 1 1 0 0 1 .38-.44.51.51 0 0 0 .3 0h.32a.43.43 0 0 1 .47.31 2.16 2.16 0 0 1-.46 2 15.11 15.11 0 0 1-1.08 1.21 1.93 1.93 0 0 0-.3.39 3.18 3.18 0 0 1-.58.17 1.45 1.45 0 0 0-.57.28 1.05 1.05 0 0 0-.5.21 1.24 1.24 0 0 1-.51.13c-.32 0-.71.11-1.06.11a1.37 1.37 0 0 1-.92-.41 4.52 4.52 0 0 1-2.34-1.1 8.45 8.45 0 0 1-1.86-5.27 7.12 7.12 0 0 1 .46-4 2.51 2.51 0 0 0 .56-.92c.19-.26.34-.51.53-.8a3.71 3.71 0 0 1 2.1-1.48c.53-.19 1.08-.32 1.64-.47 1-.08 1.77.77 2.65 1.1a7.5 7.5 0 0 0 1.07 1.23 1.54 1.54 0 0 1 .33.42c.52.62.48 1.64 1 2.29a3 3 0 0 1 .07 2.12 2.52 2.52 0 0 1-1.19.24h-1.28m.74-2.75a4.11 4.11 0 0 0-.34-.51 1.17 1.17 0 0 1-.26-.46c-.29-1-1-1.15-1.79-1.36a3.27 3.27 0 0 1-.67-.23 2.62 2.62 0 0 0-2.41.72 1.84 1.84 0 0 1-.61.63 1.17 1.17 0 0 0-.44.8c.07.56-.77.78-.48 1.43a5.88 5.88 0 0 0 2.57.16 7.14 7.14 0 0 1 .83 0c.86.13 1.68-.3 2.54 0 .43 0 1 .23 1.37-.16a1.78 1.78 0 0 0-.17-.58c-.05-.16-.11-.32-.14-.47M196.15 3.17v.08c.31.41.44 1 .72 1.34.07.91.32 2.15-.42 2.77-.43.53-1 .13-1.49.23-.13-.57-.78-.6-.58-1.34-.18-.47.3-.66.35-1.14a1.94 1.94 0 0 1 .26-.23.36.36 0 0 1 .11-.1.41.41 0 0 0-.08-.58 1.77 1.77 0 0 0-1.46-.54 1.82 1.82 0 0 0-1.42.23c-.35.55-1.2.11-1.29 1 0 .08 0 .08-.11 0a.15.15 0 0 0-.17 0 1.64 1.64 0 0 1-.32.37 1 1 0 0 0-.31.88.85.85 0 0 0-.16.17l-.12.13a.64.64 0 0 0-.2.72c.2.48-.41.81-.16 1.38a33.92 33.92 0 0 0 .1 3.9c-.1.16-.08.35-.19.55a.58.58 0 0 0 0 .41 1.51 1.51 0 0 1 .15.39.23.23 0 0 0 .32 0l.08-.06a.25.25 0 0 1 .35.06 14.55 14.55 0 0 0 1.68-.08 4 4 0 0 1 1.65.15c.3.05.41.28.52.63a.35.35 0 0 1-.09.48 3.16 3.16 0 0 0-.43.39 1.74 1.74 0 0 1-1.63-.08 11.45 11.45 0 0 1-1.36.08 5.77 5.77 0 0 1-1.33-.13 15.57 15.57 0 0 0-2.23.13 8.15 8.15 0 0 1-2.27-.11.74.74 0 0 1-.33-.4c0-.22-.08-.45-.08-.68s0-.35.26-.42a9.17 9.17 0 0 1 2.34 0c.3.25.67.11 1 0a2.52 2.52 0 0 0 .17-1.53v-.58a6.42 6.42 0 0 1-.08-1.65 5.56 5.56 0 0 0-.06-1.6 3 3 0 0 0 0-.73 1 1 0 0 1 .17-.75 13.38 13.38 0 0 0-.17-1.65 1.38 1.38 0 0 0 .07-.9v-.27c-.43-.37-1.1-.26-1.57-.35a2.82 2.82 0 0 1-1.46.21 1 1 0 0 1-.65-.53c-.07-.34-.15-.85.18-1.06a12.22 12.22 0 0 1 4.18 0c.35.38.66.61.68 1.23.43 0 .69-.42 1-.71a1.28 1.28 0 0 0 .59-.38.89.89 0 0 1 .62-.24 1.63 1.63 0 0 0 1-.19 1.54 1.54 0 0 1 1-.18.35.35 0 0 1 .41-.07 3.07 3.07 0 0 0 1.08.42c.36.3.7.57 1.16 1l.05-.14ZM101.69 9.37a2 2 0 0 1-.81 1.74 2.28 2.28 0 0 1-2.73 0 2.62 2.62 0 0 1-.67-2 1.89 1.89 0 0 1 1.27-1.5c.23-.1.5-.1.7-.29a2.07 2.07 0 0 1 1 0 2.53 2.53 0 0 1 1.2 2.06Z" class="cls-1"/></svg>